<mxGraphModel dx="2858" dy="1096" grid="1" gridSize="10" guides="1" tooltips="1" connect="1" arrows="1" fold="1" page="1" pageScale="1" pageWidth="827" pageHeight="1169" math="0" shadow="0">
  <root>
    <mxCell id="0"/>
    <mxCell id="1" parent="0"/>
    <mxCell id="5Bd5JUqJJ80D3uALT8kl-26" style="edgeStyle=orthogonalEdgeStyle;rounded=1;orthogonalLoop=1;jettySize=auto;html=1;exitX=0.5;exitY=1;exitDx=0;exitDy=0;exitPerimeter=0;entryX=0.5;entryY=0;entryDx=0;entryDy=0;entryPerimeter=0;endArrow=none;endFill=0;strokeWidth=2;fontSize=14;" edge="1" parent="1" source="5Bd5JUqJJ80D3uALT8kl-1" target="5Bd5JUqJJ80D3uALT8kl-5">
      <mxGeometry relative="1" as="geometry"/>
    </mxCell>
    <mxCell id="5Bd5JUqJJ80D3uALT8kl-1" value="Начало извлечения&lt;br&gt;именованных сущностей" style="strokeWidth=2;html=1;shape=mxgraph.flowchart.terminator;whiteSpace=wrap;fontSize=14;" vertex="1" parent="1">
      <mxGeometry x="120" y="40" width="160" height="80" as="geometry"/>
    </mxCell>
    <mxCell id="5Bd5JUqJJ80D3uALT8kl-3" value="Конец извлечения&lt;br&gt;именованных сущностей" style="strokeWidth=2;html=1;shape=mxgraph.flowchart.terminator;whiteSpace=wrap;fontSize=14;" vertex="1" parent="1">
      <mxGeometry x="120" y="680" width="160" height="80" as="geometry"/>
    </mxCell>
    <mxCell id="5Bd5JUqJJ80D3uALT8kl-27" style="edgeStyle=orthogonalEdgeStyle;rounded=1;orthogonalLoop=1;jettySize=auto;html=1;exitX=1;exitY=0.5;exitDx=0;exitDy=0;exitPerimeter=0;entryX=0;entryY=0.5;entryDx=0;entryDy=0;endArrow=classic;endFill=1;strokeWidth=2;fontSize=14;" edge="1" parent="1" source="5Bd5JUqJJ80D3uALT8kl-4" target="5Bd5JUqJJ80D3uALT8kl-7">
      <mxGeometry relative="1" as="geometry"/>
    </mxCell>
    <mxCell id="5Bd5JUqJJ80D3uALT8kl-4" value="&lt;div&gt;&lt;br&gt;&lt;/div&gt;&lt;div&gt;Стратегии с/э развития&lt;/div&gt;&lt;div&gt;по регионам Российской&lt;/div&gt;&lt;div&gt;Федерации&lt;br&gt;&lt;/div&gt;" style="strokeWidth=2;html=1;shape=mxgraph.flowchart.database;whiteSpace=wrap;fontSize=14;" vertex="1" parent="1">
      <mxGeometry x="-200" y="160" width="190" height="110" as="geometry"/>
    </mxCell>
    <mxCell id="5Bd5JUqJJ80D3uALT8kl-25" style="edgeStyle=orthogonalEdgeStyle;rounded=1;orthogonalLoop=1;jettySize=auto;html=1;exitX=0.5;exitY=1;exitDx=0;exitDy=0;exitPerimeter=0;entryX=0.5;entryY=0;entryDx=0;entryDy=0;endArrow=none;endFill=0;strokeWidth=2;fontSize=14;" edge="1" parent="1" source="5Bd5JUqJJ80D3uALT8kl-5" target="5Bd5JUqJJ80D3uALT8kl-7">
      <mxGeometry relative="1" as="geometry"/>
    </mxCell>
    <mxCell id="5Bd5JUqJJ80D3uALT8kl-5" value="Для каждого региона" style="strokeWidth=2;html=1;shape=mxgraph.flowchart.loop_limit;whiteSpace=wrap;fontSize=14;" vertex="1" parent="1">
      <mxGeometry x="120" y="160" width="160" height="80" as="geometry"/>
    </mxCell>
    <mxCell id="5Bd5JUqJJ80D3uALT8kl-9" value="" style="group" vertex="1" connectable="0" parent="1">
      <mxGeometry x="120" y="280" width="160" height="80" as="geometry"/>
    </mxCell>
    <mxCell id="5Bd5JUqJJ80D3uALT8kl-7" value="" style="verticalLabelPosition=bottom;verticalAlign=top;html=1;strokeWidth=2;shape=process;whiteSpace=wrap;rounded=1;size=0.14;arcSize=6;fontSize=14;" vertex="1" parent="5Bd5JUqJJ80D3uALT8kl-9">
      <mxGeometry width="160" height="80" as="geometry"/>
    </mxCell>
    <mxCell id="5Bd5JUqJJ80D3uALT8kl-8" value="&lt;div align=&quot;center&quot;&gt;Извлечение&lt;/div&gt;&lt;div align=&quot;center&quot;&gt;термов&lt;/div&gt;&lt;div&gt;rutermextract&lt;br&gt;&lt;/div&gt;" style="text;html=1;resizable=0;points=[];autosize=1;align=center;verticalAlign=top;spacingTop=-4;fontSize=14;" vertex="1" parent="5Bd5JUqJJ80D3uALT8kl-9">
      <mxGeometry x="30" y="15" width="100" height="50" as="geometry"/>
    </mxCell>
    <mxCell id="5Bd5JUqJJ80D3uALT8kl-35" style="edgeStyle=orthogonalEdgeStyle;rounded=1;orthogonalLoop=1;jettySize=auto;html=1;exitX=1;exitY=0.5;exitDx=0;exitDy=0;entryX=0;entryY=0.5;entryDx=0;entryDy=0;endArrow=classic;endFill=1;strokeWidth=2;fontSize=14;jumpStyle=none;jumpSize=6;comic=0;shadow=0;" edge="1" parent="1" source="5Bd5JUqJJ80D3uALT8kl-10" target="5Bd5JUqJJ80D3uALT8kl-13">
      <mxGeometry relative="1" as="geometry"/>
    </mxCell>
    <mxCell id="5Bd5JUqJJ80D3uALT8kl-10" value="Список термов" style="shape=internalStorage;whiteSpace=wrap;html=1;dx=15;dy=15;rounded=1;arcSize=8;strokeWidth=2;fontSize=14;" vertex="1" parent="1">
      <mxGeometry x="320" y="280" width="160" height="80" as="geometry"/>
    </mxCell>
    <mxCell id="5Bd5JUqJJ80D3uALT8kl-20" style="edgeStyle=orthogonalEdgeStyle;rounded=1;orthogonalLoop=1;jettySize=auto;html=1;exitX=0.5;exitY=1;exitDx=0;exitDy=0;exitPerimeter=0;entryX=0.5;entryY=0;entryDx=0;entryDy=0;strokeWidth=2;fontSize=14;endArrow=none;endFill=0;" edge="1" parent="1" source="5Bd5JUqJJ80D3uALT8kl-11" target="5Bd5JUqJJ80D3uALT8kl-13">
      <mxGeometry relative="1" as="geometry"/>
    </mxCell>
    <mxCell id="5Bd5JUqJJ80D3uALT8kl-11" value="Для каждого терма" style="strokeWidth=2;html=1;shape=mxgraph.flowchart.loop_limit;whiteSpace=wrap;fontSize=14;" vertex="1" parent="1">
      <mxGeometry x="560" y="160" width="160" height="80" as="geometry"/>
    </mxCell>
    <mxCell id="5Bd5JUqJJ80D3uALT8kl-15" value="" style="group" vertex="1" connectable="0" parent="1">
      <mxGeometry x="560" y="280" width="160" height="80" as="geometry"/>
    </mxCell>
    <mxCell id="5Bd5JUqJJ80D3uALT8kl-13" value="" style="verticalLabelPosition=bottom;verticalAlign=top;html=1;strokeWidth=2;shape=process;whiteSpace=wrap;rounded=1;size=0.14;arcSize=6;fontSize=14;" vertex="1" parent="5Bd5JUqJJ80D3uALT8kl-15">
      <mxGeometry width="160" height="80" as="geometry"/>
    </mxCell>
    <mxCell id="5Bd5JUqJJ80D3uALT8kl-14" value="&lt;div&gt;Приведение к&lt;/div&gt;&lt;div&gt;нормальной&lt;/div&gt;&lt;div&gt;форме&lt;/div&gt;&lt;div&gt;pymorphy2&lt;br&gt;&lt;/div&gt;" style="text;html=1;resizable=0;points=[];autosize=1;align=center;verticalAlign=top;spacingTop=-4;fontSize=14;" vertex="1" parent="5Bd5JUqJJ80D3uALT8kl-15">
      <mxGeometry x="25" y="5" width="110" height="70" as="geometry"/>
    </mxCell>
    <mxCell id="5Bd5JUqJJ80D3uALT8kl-19" style="edgeStyle=orthogonalEdgeStyle;rounded=1;orthogonalLoop=1;jettySize=auto;html=1;exitX=0.5;exitY=1;exitDx=0;exitDy=0;entryX=0.5;entryY=0;entryDx=0;entryDy=0;entryPerimeter=0;fontSize=14;strokeWidth=2;" edge="1" parent="1" source="5Bd5JUqJJ80D3uALT8kl-7" target="5Bd5JUqJJ80D3uALT8kl-11">
      <mxGeometry relative="1" as="geometry">
        <Array as="points">
          <mxPoint x="200" y="390"/>
          <mxPoint x="520" y="390"/>
          <mxPoint x="520" y="140"/>
          <mxPoint x="640" y="140"/>
        </Array>
      </mxGeometry>
    </mxCell>
    <mxCell id="5Bd5JUqJJ80D3uALT8kl-21" style="edgeStyle=orthogonalEdgeStyle;rounded=1;orthogonalLoop=1;jettySize=auto;html=1;exitX=0.5;exitY=1;exitDx=0;exitDy=0;entryX=0.5;entryY=1;entryDx=0;entryDy=0;entryPerimeter=0;endArrow=none;endFill=0;strokeWidth=2;fontSize=14;" edge="1" parent="1" source="5Bd5JUqJJ80D3uALT8kl-13" target="5Bd5JUqJJ80D3uALT8kl-12">
      <mxGeometry relative="1" as="geometry"/>
    </mxCell>
    <mxCell id="5Bd5JUqJJ80D3uALT8kl-22" value="" style="group" vertex="1" connectable="0" parent="1">
      <mxGeometry x="120" y="440" width="160" height="80" as="geometry"/>
    </mxCell>
    <mxCell id="5Bd5JUqJJ80D3uALT8kl-6" value="" style="strokeWidth=2;html=1;shape=mxgraph.flowchart.loop_limit;whiteSpace=wrap;fontSize=14;rotation=-180;" vertex="1" parent="5Bd5JUqJJ80D3uALT8kl-22">
      <mxGeometry width="160" height="80" as="geometry"/>
    </mxCell>
    <mxCell id="5Bd5JUqJJ80D3uALT8kl-18" value="&lt;div align=&quot;center&quot;&gt;Конец цикла&lt;/div&gt;" style="text;html=1;resizable=0;points=[];autosize=1;align=center;verticalAlign=top;spacingTop=-4;fontSize=14;" vertex="1" parent="5Bd5JUqJJ80D3uALT8kl-22">
      <mxGeometry x="30" y="30" width="100" height="20" as="geometry"/>
    </mxCell>
    <mxCell id="5Bd5JUqJJ80D3uALT8kl-23" value="" style="group" vertex="1" connectable="0" parent="1">
      <mxGeometry x="560" y="400" width="160" height="80" as="geometry"/>
    </mxCell>
    <mxCell id="5Bd5JUqJJ80D3uALT8kl-12" value="" style="strokeWidth=2;html=1;shape=mxgraph.flowchart.loop_limit;whiteSpace=wrap;fontSize=14;rotation=180;" vertex="1" parent="5Bd5JUqJJ80D3uALT8kl-23">
      <mxGeometry width="160" height="80" as="geometry"/>
    </mxCell>
    <mxCell id="5Bd5JUqJJ80D3uALT8kl-16" value="&lt;div align=&quot;center&quot;&gt;Конец цикла&lt;/div&gt;" style="text;html=1;resizable=0;points=[];autosize=1;align=center;verticalAlign=top;spacingTop=-4;fontSize=14;" vertex="1" parent="5Bd5JUqJJ80D3uALT8kl-23">
      <mxGeometry x="30" y="30" width="100" height="20" as="geometry"/>
    </mxCell>
    <mxCell id="5Bd5JUqJJ80D3uALT8kl-24" style="edgeStyle=orthogonalEdgeStyle;rounded=1;orthogonalLoop=1;jettySize=auto;html=1;exitX=0.5;exitY=0;exitDx=0;exitDy=0;exitPerimeter=0;entryX=0.5;entryY=1;entryDx=0;entryDy=0;entryPerimeter=0;endArrow=classic;endFill=1;strokeWidth=2;fontSize=14;" edge="1" parent="1" source="5Bd5JUqJJ80D3uALT8kl-12" target="5Bd5JUqJJ80D3uALT8kl-6">
      <mxGeometry relative="1" as="geometry">
        <Array as="points">
          <mxPoint x="640" y="500"/>
          <mxPoint x="520" y="500"/>
          <mxPoint x="520" y="410"/>
          <mxPoint x="200" y="410"/>
        </Array>
      </mxGeometry>
    </mxCell>
    <mxCell id="5Bd5JUqJJ80D3uALT8kl-29" value="&lt;div&gt;&lt;br&gt;&lt;/div&gt;&lt;div&gt;Списки именованных&lt;/div&gt;&lt;div&gt;сущностей по регионам&lt;br&gt;&lt;/div&gt;" style="strokeWidth=2;html=1;shape=mxgraph.flowchart.database;whiteSpace=wrap;fontSize=14;" vertex="1" parent="1">
      <mxGeometry x="545" y="545" width="190" height="110" as="geometry"/>
    </mxCell>
    <mxCell id="5Bd5JUqJJ80D3uALT8kl-31" style="edgeStyle=orthogonalEdgeStyle;rounded=1;orthogonalLoop=1;jettySize=auto;html=1;exitX=1;exitY=0.5;exitDx=0;exitDy=0;entryX=0;entryY=0.5;entryDx=0;entryDy=0;entryPerimeter=0;endArrow=classic;endFill=1;strokeWidth=2;fontSize=14;" edge="1" parent="1" source="5Bd5JUqJJ80D3uALT8kl-30" target="5Bd5JUqJJ80D3uALT8kl-29">
      <mxGeometry relative="1" as="geometry"/>
    </mxCell>
    <mxCell id="5Bd5JUqJJ80D3uALT8kl-32" style="edgeStyle=orthogonalEdgeStyle;rounded=1;orthogonalLoop=1;jettySize=auto;html=1;exitX=0.5;exitY=1;exitDx=0;exitDy=0;entryX=0.5;entryY=0;entryDx=0;entryDy=0;entryPerimeter=0;endArrow=none;endFill=0;strokeWidth=2;fontSize=14;" edge="1" parent="1" source="5Bd5JUqJJ80D3uALT8kl-30" target="5Bd5JUqJJ80D3uALT8kl-3">
      <mxGeometry relative="1" as="geometry"/>
    </mxCell>
    <mxCell id="5Bd5JUqJJ80D3uALT8kl-30" value="Запись данных" style="rounded=1;whiteSpace=wrap;html=1;absoluteArcSize=1;arcSize=14;strokeWidth=2;fontSize=14;" vertex="1" parent="1">
      <mxGeometry x="120" y="560" width="160" height="80" as="geometry"/>
    </mxCell>
    <mxCell id="5Bd5JUqJJ80D3uALT8kl-33" style="edgeStyle=orthogonalEdgeStyle;rounded=1;orthogonalLoop=1;jettySize=auto;html=1;exitX=0.5;exitY=0;exitDx=0;exitDy=0;exitPerimeter=0;entryX=0.5;entryY=0;entryDx=0;entryDy=0;endArrow=none;endFill=0;strokeWidth=2;fontSize=14;" edge="1" parent="1" source="5Bd5JUqJJ80D3uALT8kl-6" target="5Bd5JUqJJ80D3uALT8kl-30">
      <mxGeometry relative="1" as="geometry"/>
    </mxCell>
    <mxCell id="5Bd5JUqJJ80D3uALT8kl-34" style="edgeStyle=orthogonalEdgeStyle;rounded=1;orthogonalLoop=1;jettySize=auto;html=1;exitX=1;exitY=0.5;exitDx=0;exitDy=0;entryX=0;entryY=0.5;entryDx=0;entryDy=0;endArrow=classic;endFill=1;strokeWidth=2;fontSize=14;" edge="1" parent="1" source="5Bd5JUqJJ80D3uALT8kl-7" target="5Bd5JUqJJ80D3uALT8kl-10">
      <mxGeometry relative="1" as="geometry"/>
    </mxCell>
  </root>
</mxGraphModel>

